
		<svg xmlns="http://www.w3.org/2000/svg" xmlns:xlink="http://www.w3.org/1999/xlink" version="1.1" width="3300" height="1845">
			
			<g transform="scale(15) translate(10, 10)">
				<defs id="SvgjsDefs1397"><linearGradient id="SvgjsLinearGradient1401"><stop id="SvgjsStop1402" stop-color="#834f2a" offset="0"></stop><stop id="SvgjsStop1403" stop-color="#dba173" offset="0.5"></stop><stop id="SvgjsStop1404" stop-color=" #834F2A" offset="1"></stop></linearGradient><linearGradient id="SvgjsLinearGradient1405"><stop id="SvgjsStop1406" stop-color="#834f2a" offset="0"></stop><stop id="SvgjsStop1407" stop-color="#dba173" offset="0.5"></stop><stop id="SvgjsStop1408" stop-color=" #834F2A" offset="1"></stop></linearGradient></defs><g id="SvgjsG1398" featureKey="root" fill="#f2f2f2"></g><g id="SvgjsG1399" featureKey="text1" fill="url(#SvgjsLinearGradient1401)" transform="matrix(4.128819274774369,0,0,4.128819274774369,0.08257679893812181,-22.947991672871588)"><path d="M11.38 19.7 q0 1.08 -0.47 1.89 t-1.24 1.34 t-1.72 0.8 t-1.91 0.27 q-1.7 0 -3.22 -0.66 t-2.72 -1.8 q-0.12 -0.12 -0.12 -0.22 q0 -0.12 0.1 -0.23 t0.24 -0.11 q0.1 0 0.2 0.1 q1.24 1.04 2.57 1.67 t2.99 0.63 q0.84 0 1.67 -0.23 t1.5 -0.7 t1.08 -1.17 t0.41 -1.64 q0 -0.76 -0.36 -1.31 t-0.94 -0.94 t-1.33 -0.65 t-1.51 -0.45 t-1.49 -0.33 t-1.27 -0.28 q-0.66 -0.18 -1.27 -0.49 t-1.07 -0.77 t-0.73 -1.07 t-0.27 -1.37 q0 -1.02 0.47 -1.77 t1.22 -1.24 t1.66 -0.74 t1.79 -0.25 q0.56 0 1.27 0.12 t1.42 0.35 t1.33 0.55 t1.04 0.72 q0.06 0.06 0.09 0.1 t0.03 0.14 q0 0.12 -0.1 0.22 t-0.22 0.1 q-0.04 0 -0.15 -0.06 t-0.24 -0.15 t-0.24 -0.16 t-0.17 -0.11 q-0.9 -0.54 -1.92 -0.86 t-2.1 -0.32 q-0.76 0 -1.56 0.19 t-1.47 0.59 t-1.1 1.03 t-0.43 1.51 q0 0.96 0.44 1.57 t1.16 1 t1.64 0.63 t1.89 0.46 t1.89 0.48 t1.64 0.71 t1.16 1.14 t0.44 1.77 z M31.14 8.28 q0 0.1 -0.02 0.12 l0 15.3 q0 0.12 -0.09 0.21 t-0.21 0.09 t-0.2 -0.09 t-0.08 -0.21 l0 -14.44 l-6.9 9.66 q0.08 0.14 0.36 0.52 t0.65 0.89 t0.79 1.06 t0.76 1.04 t0.57 0.83 t0.23 0.42 q0 0.14 -0.1 0.23 t-0.22 0.09 q-0.16 0 -0.24 -0.12 l-11 -15.32 q-0.06 -0.08 -0.06 -0.2 t0.08 -0.21 t0.22 -0.09 q0.18 0 0.26 0.14 l7.32 10.2 l7.32 -10.28 q0.08 -0.12 0.22 -0.12 q0.12 0 0.23 0.08 t0.11 0.2 z M24.58 23.7 q0 0.12 -0.1 0.21 t-0.22 0.09 q-0.16 0 -0.24 -0.12 l-8.04 -11.28 l0 11 q0 0.14 -0.1 0.22 t-0.22 0.08 t-0.22 -0.09 t-0.1 -0.21 l0 -11.92 q0 -0.14 0.08 -0.26 t0.24 -0.12 t0.24 0.14 q0.14 0.2 0.59 0.81 t1.08 1.49 t1.4 1.94 t1.55 2.15 t1.51 2.12 t1.3 1.84 t0.91 1.33 t0.34 0.58 z M48.42 15.98 q0 1.66 -0.63 3.11 t-1.71 2.53 t-2.54 1.7 t-3.1 0.64 l-2.62 0.02 q-0.14 0 -0.23 -0.1 t-0.09 -0.24 l0 -15 l-1.38 0 l0 15.04 q0 0.32 -0.32 0.32 q-0.14 0 -0.22 -0.1 t-0.08 -0.22 l0 -15.34 q0 -0.14 0.09 -0.24 t0.23 -0.1 l4.62 0 q1.64 0 3.1 0.63 t2.54 1.71 t1.71 2.54 t0.63 3.1 z M47.8 15.98 q0 -1.52 -0.58 -2.87 t-1.57 -2.34 t-2.34 -1.57 t-2.87 -0.58 q-0.58 0 -1.16 0.01 t-1.16 0.01 l0 14.7 l1.16 0 t1.16 -0.02 q1.52 -0.02 2.86 -0.6 t2.34 -1.57 t1.58 -2.32 t0.58 -2.85 z"></path></g><g id="SvgjsG1400" featureKey="text3" fill="url(#SvgjsLinearGradient1405)" transform="matrix(0.4779884287517033,0,0,0.4779884287517033,10.474212773957655,86.26791519354154)"><path d="M10.1 19.740000000000002 c0.16 0 0.28 0.1 0.28 0.28 c-0.08 2.8 -1.54 4.08 -4.02 4.08 l-1.24 0 c-2.56 0 -4.02 -1.36 -4.02 -4.16 l0 -5.88 c0 -2.8 1.46 -4.16 4.02 -4.16 l1.24 0 c2.48 0 3.94 1.28 4.02 4.08 c0 0.18 -0.12 0.28 -0.28 0.28 l-0.44 0 c-0.18 0 -0.3 -0.1 -0.3 -0.28 c-0.08 -2.22 -0.94 -3.12 -3 -3.12 l-1.24 0 c-2.12 0 -3 0.98 -3 3.2 l0 5.88 c0 2.22 0.88 3.2 3 3.2 l1.24 0 c2.06 0 2.92 -0.9 3 -3.12 c0 -0.18 0.12 -0.28 0.3 -0.28 l0.44 0 z M26.060000000000002 9.9 c2.54 0 4.02 1.36 4.02 4.16 l0 5.88 c0 2.8 -1.48 4.16 -4.02 4.16 l-1.34 0 c-2.56 0 -4.02 -1.36 -4.02 -4.16 l0 -5.88 c0 -2.8 1.46 -4.16 4.02 -4.16 l1.34 0 z M29.060000000000002 19.94 l0 -5.88 c0 -2.22 -0.88 -3.2 -3 -3.2 l-1.34 0 c-2.12 0 -3 0.98 -3 3.2 l0 5.88 c0 2.22 0.88 3.2 3 3.2 l1.34 0 c2.12 0 3 -0.98 3 -3.2 z M49.28 10 c0.2 0 0.3 0.1 0.3 0.3 l0 13.4 c0 0.2 -0.1 0.3 -0.3 0.3 l-1.06 0 c-0.16 0 -0.28 -0.06 -0.36 -0.22 l-6.24 -12.84 l0 12.76 c0 0.2 -0.1 0.3 -0.3 0.3 l-0.42 0 c-0.2 0 -0.3 -0.1 -0.3 -0.3 l0 -13.4 c0 -0.2 0.1 -0.3 0.3 -0.3 l1.06 0 c0.16 0 0.28 0.06 0.36 0.22 l6.24 12.84 l0 -12.76 c0 -0.2 0.1 -0.3 0.3 -0.3 l0.42 0 z M64.74000000000001 16.240000000000002 c2.18 0.54 4.28 1.24 4.28 3.76 c0 2.8 -1.46 4.1 -4.02 4.1 l-1.08 0 c-2.46 0 -3.9 -1.26 -4.02 -3.88 c0 -0.18 0.12 -0.28 0.28 -0.28 l0.46 0 c0.16 0 0.28 0.1 0.28 0.28 c0.08 2 0.98 2.92 3 2.92 l1.08 0 c2.14 0 3 -0.94 3 -3.14 c0 -2.02 -1.64 -2.34 -3.24 -2.76 l-0.78 -0.2 c-2.22 -0.56 -3.9 -1.04 -3.9 -3.58 c0 -2.64 1.54 -3.56 4.02 -3.56 l0.68 0 c2.44 0 3.78 1.26 3.9 3.82 c0 0.18 -0.12 0.28 -0.28 0.28 l-0.46 0 c-0.16 0 -0.28 -0.1 -0.28 -0.28 c-0.08 -1.98 -0.88 -2.86 -2.88 -2.86 l-0.68 0 c-2.06 0 -3 0.52 -3 2.6 s1.32 2.18 2.86 2.58 z M87.00000000000001 10 c0.2 0 0.3 0.1 0.3 0.3 l0 0.36 c0 0.2 -0.1 0.3 -0.3 0.3 l-3.46 0 l0 12.74 c0 0.2 -0.1 0.3 -0.3 0.3 l-0.42 0 c-0.2 0 -0.3 -0.1 -0.3 -0.3 l0 -12.74 l-3.48 0 c-0.2 0 -0.3 -0.1 -0.3 -0.3 l0 -0.36 c0 -0.2 0.1 -0.3 0.3 -0.3 l4.2 0 l3.76 0 z M106.66000000000003 23.66 c0.1 0.2 0 0.34 -0.2 0.34 l-0.5 0 c-0.16 0 -0.26 -0.06 -0.32 -0.2 l-2.22 -4.88 c-0.3 0.04 -0.62 0.06 -0.94 0.06 l-3.96 0 l0 4.72 c0 0.2 -0.1 0.3 -0.3 0.3 l-0.42 0 c-0.2 0 -0.3 -0.1 -0.3 -0.3 l0 -13.4 c0 -0.2 0.1 -0.3 0.3 -0.3 l0.42 0 l4.26 0 c2.44 0 3.9 1.26 3.9 4 l0 0.98 c0 1.94 -0.72 3.14 -2.02 3.68 z M98.52000000000001 18.02 l3.96 0 c2 0 2.88 -0.88 2.88 -3.04 l0 -0.98 c0 -2.16 -0.88 -3.04 -2.88 -3.04 l-3.96 0 l0 7.06 z M126.00000000000001 10 c0.18 0 0.3 0.12 0.3 0.28 l0 9.66 c0 2.8 -1.46 4.16 -4.02 4.16 l-1.34 0 c-2.58 0 -4.02 -1.36 -4.02 -4.16 l0 -9.66 c0 -0.16 0.12 -0.28 0.28 -0.28 l0.46 0 c0.16 0 0.28 0.12 0.28 0.28 l0 9.66 c0 2.14 0.94 3.2 3 3.2 l1.34 0 c2.06 0 3 -1.06 3 -3.2 l0 -9.66 c0 -0.16 0.1 -0.28 0.28 -0.28 l0.44 0 z M145.82000000000002 19.740000000000002 c0.16 0 0.28 0.1 0.28 0.28 c-0.08 2.8 -1.54 4.08 -4.02 4.08 l-1.24 0 c-2.56 0 -4.02 -1.36 -4.02 -4.16 l0 -5.88 c0 -2.8 1.46 -4.16 4.02 -4.16 l1.24 0 c2.48 0 3.94 1.28 4.02 4.08 c0 0.18 -0.12 0.28 -0.28 0.28 l-0.44 0 c-0.18 0 -0.3 -0.1 -0.3 -0.28 c-0.08 -2.22 -0.94 -3.12 -3 -3.12 l-1.24 0 c-2.12 0 -3 0.98 -3 3.2 l0 5.88 c0 2.22 0.88 3.2 3 3.2 l1.24 0 c2.06 0 2.92 -0.9 3 -3.12 c0 -0.18 0.12 -0.28 0.3 -0.28 l0.44 0 z M164.38000000000002 10 c0.2 0 0.3 0.1 0.3 0.3 l0 0.36 c0 0.2 -0.1 0.3 -0.3 0.3 l-3.46 0 l0 12.74 c0 0.2 -0.1 0.3 -0.3 0.3 l-0.42 0 c-0.2 0 -0.3 -0.1 -0.3 -0.3 l0 -12.74 l-3.48 0 c-0.2 0 -0.3 -0.1 -0.3 -0.3 l0 -0.36 c0 -0.2 0.1 -0.3 0.3 -0.3 l4.2 0 l3.76 0 z M174.88000000000002 10.3 c0 -0.2 0.1 -0.3 0.3 -0.3 l0.42 0 c0.2 0 0.3 0.1 0.3 0.3 l0 13.4 c0 0.2 -0.1 0.3 -0.3 0.3 l-0.42 0 c-0.2 0 -0.3 -0.1 -0.3 -0.3 l0 -13.4 z M191.78000000000003 9.9 c2.54 0 4.02 1.36 4.02 4.16 l0 5.88 c0 2.8 -1.48 4.16 -4.02 4.16 l-1.34 0 c-2.56 0 -4.02 -1.36 -4.02 -4.16 l0 -5.88 c0 -2.8 1.46 -4.16 4.02 -4.16 l1.34 0 z M194.78000000000003 19.94 l0 -5.88 c0 -2.22 -0.88 -3.2 -3 -3.2 l-1.34 0 c-2.12 0 -3 0.98 -3 3.2 l0 5.88 c0 2.22 0.88 3.2 3 3.2 l1.34 0 c2.12 0 3 -0.98 3 -3.2 z M215.00000000000003 10 c0.2 0 0.3 0.1 0.3 0.3 l0 13.4 c0 0.2 -0.1 0.3 -0.3 0.3 l-1.06 0 c-0.16 0 -0.28 -0.06 -0.36 -0.22 l-6.24 -12.84 l0 12.76 c0 0.2 -0.1 0.3 -0.3 0.3 l-0.42 0 c-0.2 0 -0.3 -0.1 -0.3 -0.3 l0 -13.4 c0 -0.2 0.1 -0.3 0.3 -0.3 l1.06 0 c0.16 0 0.28 0.06 0.36 0.22 l6.24 12.84 l0 -12.76 c0 -0.2 0.1 -0.3 0.3 -0.3 l0.42 0 z M230.46000000000004 16.240000000000002 c2.18 0.54 4.28 1.24 4.28 3.76 c0 2.8 -1.46 4.1 -4.02 4.1 l-1.08 0 c-2.46 0 -3.9 -1.26 -4.02 -3.88 c0 -0.18 0.12 -0.28 0.28 -0.28 l0.46 0 c0.16 0 0.28 0.1 0.28 0.28 c0.08 2 0.98 2.92 3 2.92 l1.08 0 c2.14 0 3 -0.94 3 -3.14 c0 -2.02 -1.64 -2.34 -3.24 -2.76 l-0.78 -0.2 c-2.22 -0.56 -3.9 -1.04 -3.9 -3.58 c0 -2.64 1.54 -3.56 4.02 -3.56 l0.68 0 c2.44 0 3.78 1.26 3.9 3.82 c0 0.18 -0.12 0.28 -0.28 0.28 l-0.46 0 c-0.16 0 -0.28 -0.1 -0.28 -0.28 c-0.08 -1.98 -0.88 -2.86 -2.88 -2.86 l-0.68 0 c-2.06 0 -3 0.52 -3 2.6 s1.32 2.18 2.86 2.58 z  M264.06 10 c2.44 0 3.9 1.38 3.9 4 l0 0.98 c0 2.62 -1.46 4 -3.9 4 l-3.96 0 l0 4.72 c0 0.2 -0.1 0.3 -0.3 0.3 l-0.42 0 c-0.2 0 -0.3 -0.1 -0.3 -0.3 l0 -13.4 c0 -0.2 0.1 -0.3 0.3 -0.3 l0.42 0 l4.26 0 z M266.94000000000005 14.98 l0 -0.98 c0 -2.16 -0.88 -3.04 -2.88 -3.04 l-3.96 0 l0 7.06 l3.96 0 c2 0 2.88 -0.88 2.88 -3.04 z M277.52000000000004 10.32 c-0.06 -0.22 0.04 -0.32 0.24 -0.32 l0.44 0 c0.2 0 0.3 0.1 0.36 0.32 l3.86 12.44 l3.84 -12.44 c0.06 -0.22 0.16 -0.32 0.36 -0.32 l0.46 0 c0.2 0 0.28 0.1 0.22 0.32 l-4.2 13.36 c-0.06 0.2 -0.2 0.32 -0.38 0.32 l-0.6 0 c-0.18 0 -0.32 -0.12 -0.38 -0.32 z M305.22 10 c0.2 0 0.3 0.1 0.3 0.3 l0 0.36 c0 0.2 -0.1 0.3 -0.3 0.3 l-3.46 0 l0 12.74 c0 0.2 -0.1 0.3 -0.3 0.3 l-0.42 0 c-0.2 0 -0.3 -0.1 -0.3 -0.3 l0 -12.74 l-3.48 0 c-0.2 0 -0.3 -0.1 -0.3 -0.3 l0 -0.36 c0 -0.2 0.1 -0.3 0.3 -0.3 l4.2 0 l3.76 0 z  M336.78000000000003 23.04 c0.2 0 0.3 0.1 0.3 0.3 l0 0.36 c0 0.2 -0.1 0.3 -0.3 0.3 l-6.64 0 c-0.2 0 -0.3 -0.1 -0.3 -0.3 l0 -13.4 c0 -0.2 0.1 -0.3 0.3 -0.3 l0.42 0 c0.2 0 0.3 0.1 0.3 0.3 l0 12.74 l5.92 0 z M355.06 10 c0.2 0 0.3 0.1 0.3 0.3 l0 0.36 c0 0.2 -0.1 0.3 -0.3 0.3 l-3.46 0 l0 12.74 c0 0.2 -0.1 0.3 -0.3 0.3 l-0.42 0 c-0.2 0 -0.3 -0.1 -0.3 -0.3 l0 -12.74 l-3.48 0 c-0.2 0 -0.3 -0.1 -0.3 -0.3 l0 -0.36 c0 -0.2 0.1 -0.3 0.3 -0.3 l4.2 0 l3.76 0 z M370.64 10 c2.44 0 3.9 1.26 3.9 3.98 l0 6.04 c0 2.72 -1.46 3.98 -3.9 3.98 l-4.48 0 l-0.3 0 c-0.2 0 -0.3 -0.1 -0.3 -0.3 l0 -13.4 c0 -0.2 0.1 -0.3 0.3 -0.3 l0.42 0 l4.36 0 z M373.52 20.02 l0 -6.04 c0 -2.14 -0.88 -3.02 -2.88 -3.02 l-4.06 0 l0 12.08 l4.06 0 c2 0 2.88 -0.88 2.88 -3.02 z"></path></g>
			</g>
		</svg>
	